# xmcd
#
# Track frame offsets:
#	150
#	17890
#	36884
#	48396
#	65588
#	82181
#	96436
#	114990
#	134713
#	155867
#	171920
#	184551
#	218729
#
# Disc length: 3194 seconds
#
# Revision: 1
# Processed by: cddbd v1.5.2PL0 Copyright (c) Steve Scherf et al.
# Submitted via: audiograbber 1.83.01
#
DISCID=bf0c780d
DTITLE=Various Artist - ASK Country Duets Vol. 1 Disc 1
DYEAR=1900
DGENRE=Karaoke
TTITLE0=Alan Jackson feat. Jimmy Buffett - It's Five O'Clock Somewhere
TTITLE1=Clint Black and Lisa Hartman-Black - When I Said I Do
TTITLE2=Loretta Lynn f/ Conway Twitty - You're The Reason Our Kids Are Ugly
TTITLE3=David Frizell and Shelly West - You're The Reason God Made Oklahoma
TTITLE4=Don Williams and Emmylou Harris - If I Needed You
TTITLE5=Kenny Rogers and Dottie West - Every Time Two Fools Collide
TTITLE6=Eddie Rabbitt and Crystal Gayle - You And I
TTITLE7=Tim McGraw and Faith Hill - Let's Make Love
TTITLE8=Garth Brooks and Trisha Yearwood - Love Will Always Win
TTITLE9=Jimmy Buffett and Martina McBride - Trip Around The Sun
TTITLE10=Kenny Rogers and Dottie West - Anyone Who Isn't Me Tonight
TTITLE11=Kid Rock and Sheryl Crow - Picture
TTITLE12=Data - Data Track
EXTD=
EXTT0=
EXTT1=
EXTT2=
EXTT3=
EXTT4=
EXTT5=
EXTT6=
EXTT7=
EXTT8=
EXTT9=
EXTT10=
EXTT11=
EXTT12=
PLAYORDER=
